<svg width="64px" height="64px" viewBox="0 0 100 100" xmlns="http://www.w3.org/2000/svg" version="1.1" fill="#1ebc5f">

<g id="SVGRepo_bgCarrier" stroke-width="0"/>

<g id="SVGRepo_tracerCarrier" stroke-linecap="round" stroke-linejoin="round"/>

<g id="SVGRepo_iconCarrier"> <path style="fill:#28c62c;stroke:#28b43e" d="M 92,25 92,82 59,99 9,82 10,25 59,36 z"/> <path style="fill:#28b43e;stroke:#28c62c;stroke-width:1" d="M 10,25 1,10 38,4 47,18 53,3 98,8 92,25 59,36 z"/> <path style="fill:#048b3e;stroke:#28c62c;stroke-width:1" d="M 10,25 47,18 92,25 59,36 z"/> <path style="fill:#12c100;stroke:#1ec900;stroke-width:1.5" d="m 59,38 0,59"/> <path style="fill:#2dcb33;stroke:#12c100;" d="M 1,41 10,25 59,36 92,25 99,42 66,55 59,36 51,56 z"/> <path style="fill:#56d037;stroke:#28c62c;stroke-width:2" d="m 73,67 c 0,0 27,18 25,31 C 86,100 66,73 66,73"/> <circle cx="51" cy="51" r="26" fill="#12c100" stroke="#28c62c" style="stroke-width:2"/> <circle cx="51" cy="51" r="23" fill="#12c100" stroke="#5bc65a" style="stroke-width:4"/> <circle cx="51" cy="51" r="21" fill="#ffffff" stroke="#28c62c" style="stroke-width:1;fill-opacity:0.5"/> </g>

</svg>