<svg width="64px" height="64px" viewBox="0 0 16 16" version="1.1" xmlns="http://www.w3.org/2000/svg" xmlns:xlink="http://www.w3.org/1999/xlink" fill="#ff9f0a">

<g id="SVGRepo_bgCarrier" stroke-width="0"/>

<g id="SVGRepo_tracerCarrier" stroke-linecap="round" stroke-linejoin="round"/>

<g id="SVGRepo_iconCarrier"> <path fill="#ff9f0a" d="M16 4l-8.060-4-7.94 4v1h1v11h2v-9h10v9h2v-11h1v-1zM4 6v-1h2v1h-2zM7 6v-1h2v1h-2zM10 6v-1h2v1h-2z"/> <path fill="#ff9f0a" d="M6 9h-1v-1h-1v3h3v-3h-1v1z"/> <path fill="#ff9f0a" d="M6 13h-1v-1h-1v3h3v-3h-1v1z"/> <path fill="#ff9f0a" d="M10 13h-1v-1h-1v3h3v-3h-1v1z"/> </g>

</svg>